/* XPM */
static char * bottom_right_inactive_xpm[] = {
"15 11 2 1",
" 	c None",
".	c #16181D",
"...........    ",
"...........    ",
"...........    ",
"..........     ",
"..........     ",
"..........     ",
".........      ",
"........       ",
".......        ",
"......         ",
"...            "};
