/* XPM */
static char * bottom_right_active_xpm[] = {
"15 11 14 1",
" 	c None",
".	c #16181D",
"+	c #17191F",
"@	c #1B1A24",
"#	c #231D2E",
"$	c #2B2138",
"%	c #342644",
"&	c #3E2B51",
"*	c #4B3361",
"=	c #56396E",
"-	c #603F7B",
";	c #6B4688",
">	c #794F99",
",	c #7E52A0",
"..........+    ",
"..........@    ",
"..........#    ",
".........$     ",
".........%     ",
".........&     ",
"........*      ",
".......=       ",
"......-        ",
"...;;;         ",
">>,            "};
