/* XPM */
static char * bottom_active_xpm[] = {
"11 11 2 1",
" 	c #16181D",
".	c #7E52A0",
"           ",
"           ",
"           ",
"           ",
"           ",
"           ",
"           ",
"           ",
"           ",
"           ",
"..........."};
