/* XPM */
static char * bottom_left_inactive_xpm[] = {
"15 11 2 1",
" 	c None",
".	c #16181D",
"    ...........",
"    ...........",
"    ...........",
"     ..........",
"     ..........",
"     ..........",
"      .........",
"       ........",
"        .......",
"         ......",
"            ..."};
