/* XPM */
static char * close_pressed_xpm[] = {
"20 24 8 1",
" 	c #16181D",
".	c #54171B",
"+	c #A41116",
"@	c #FF0000",
"#	c #B11014",
"$	c #AB1115",
"%	c #B70F13",
"&	c #B21014",
"                    ",
"                    ",
"                    ",
"                    ",
"                    ",
"                    ",
"                    ",
"     .+      +.     ",
"     +@#    #@+     ",
"      $@%  &@#      ",
"       $@%&@#       ",
"        #@@#        ",
"        #@@#        ",
"       &@#$@%       ",
"      &@#  $@%      ",
"     +@#    #@+     ",
"     .+      +.     ",
"                    ",
"                    ",
"                    ",
"                    ",
"                    ",
"                    ",
"                    "};
