/* XPM */
static char * close_inactive_xpm[] = {
"20 24 7 1",
" 	c #16181D",
".	c #2F3033",
"+	c #58595A",
"@	c #8A8A8B",
"#	c #606061",
"$	c #5C5D5E",
"%	c #636364",
"                    ",
"                    ",
"                    ",
"                    ",
"                    ",
"                    ",
"                    ",
"     .+      +.     ",
"     +@#    #@+     ",
"      $@%  #@#      ",
"       $@%#@#       ",
"        #@@#        ",
"        #@@#        ",
"       #@#$@%       ",
"      #@#  $@%      ",
"     +@#    #@+     ",
"     .+      +.     ",
"                    ",
"                    ",
"                    ",
"                    ",
"                    ",
"                    ",
"                    "};
