/* XPM */
static char * hide_active_xpm[] = {
"20 24 2 1",
" 	c #16181D",
".	c #FFFFFF",
"                    ",
"                    ",
"                    ",
"                    ",
"                    ",
"                    ",
"                    ",
"                    ",
"                    ",
"                    ",
"                    ",
"      ........      ",
"      ........      ",
"                    ",
"                    ",
"                    ",
"                    ",
"                    ",
"                    ",
"                    ",
"                    ",
"                    ",
"                    ",
"                    "};
