/* XPM */
static char * hide_pressed_xpm[] = {
"20 24 2 1",
" 	c #16181D",
".	c #5D568D",
"                    ",
"                    ",
"                    ",
"                    ",
"                    ",
"                    ",
"                    ",
"                    ",
"                    ",
"                    ",
"                    ",
"      ........      ",
"      ........      ",
"                    ",
"                    ",
"                    ",
"                    ",
"                    ",
"                    ",
"                    ",
"                    ",
"                    ",
"                    ",
"                    "};
