/* XPM */
static char * maximize_inactive_xpm[] = {
"20 24 3 1",
" 	c #16181D",
".	c #666667",
"+	c #8A8B8B",
"                    ",
"                    ",
"                    ",
"                    ",
"                    ",
"                    ",
"                    ",
"                    ",
"      .++++++.      ",
"      ++++++++      ",
"      +      +      ",
"      +      +      ",
"      +      +      ",
"      +      +      ",
"      +      +      ",
"      .++++++.      ",
"                    ",
"                    ",
"                    ",
"                    ",
"                    ",
"                    ",
"                    ",
"                    "};
