/* XPM */
static char * menu_inactive_xpm[] = {
"20 24 6 1",
" 	c #16181D",
".	c #505052",
"+	c #848485",
"@	c #4F5051",
"#	c #8A8B8B",
"$	c #838484",
"                    ",
"                    ",
"                    ",
"                    ",
"                    ",
"                    ",
"                    ",
"                    ",
"                    ",
"                    ",
"  .++@  .++@  .++@  ",
"  +##$  +##$  +##$  ",
"  $##$  $##$  $##$  ",
"  @$$@  @$$@  @$$@  ",
"                    ",
"                    ",
"                    ",
"                    ",
"                    ",
"                    ",
"                    ",
"                    ",
"                    ",
"                    "};
