/* XPM */
static char * menu_pressed_xpm[] = {
"20 24 6 1",
" 	c #16181D",
".	c #949495",
"+	c #F3F3F3",
"@	c #939394",
"#	c #FFFFFF",
"$	c #F2F2F2",
"                    ",
"                    ",
"                    ",
"                    ",
"                    ",
"                    ",
"                    ",
"                    ",
"                    ",
"                    ",
"        .++@        ",
"        +##$        ",
"        $##$        ",
"        @$$@        ",
"                    ",
"                    ",
"                    ",
"                    ",
"                    ",
"                    ",
"                    ",
"                    ",
"                    ",
"                    "};
