/* XPM */
static char * shade_pressed_xpm[] = {
"20 24 12 1",
" 	c #16181D",
".	c #909191",
"+	c #7A7A7B",
"@	c #D9D9D9",
"#	c #F7F7F7",
"$	c #323235",
"%	c #DADADB",
"&	c #F8F8F8",
"*	c #7E7F7F",
"=	c #DEDEDE",
"-	c #38383B",
";	c #DDDDDD",
"                    ",
"                    ",
"                    ",
"                    ",
"                    ",
"                    ",
"                    ",
"                    ",
"                    ",
"      .+    +.      ",
"      @#+  +#@      ",
"      $%&*+#=-      ",
"       -;##;-       ",
"        $%=-        ",
"         --         ",
"                    ",
"                    ",
"                    ",
"                    ",
"                    ",
"                    ",
"                    ",
"                    ",
"                    "};
