/* XPM */
static char * top_right_active_xpm[] = {
"28 24 2 1",
" 	c None",
".	c #16181D",
"................            ",
"...................         ",
"....................        ",
".....................       ",
"......................      ",
".......................     ",
".......................     ",
".......................     ",
"........................    ",
"........................    ",
"........................    ",
"........................    ",
"........................    ",
"........................    ",
"........................    ",
"........................    ",
"........................    ",
"........................    ",
"........................    ",
"........................    ",
"........................    ",
"........................    ",
"........................    ",
"........................    "};
